<svg width="92" height="92" viewBox="0 0 92 92" fill="none" xmlns="http://www.w3.org/2000/svg">
<path d="M5.11111 2.55556C5.11111 3.96696 3.96695 5.11113 2.55555 5.11113C1.14416 5.11113 0 3.96696 0 2.55556C0 1.14416 1.14416 0 2.55555 0C3.96695 0 5.11111 1.14416 5.11111 2.55556Z" fill="#F0EEFF"/>
<path d="M22.4889 2.55556C22.4889 3.96696 21.3447 5.11113 19.9333 5.11113C18.5219 5.11113 17.3778 3.96696 17.3778 2.55556C17.3778 1.14416 18.5219 0 19.9333 0C21.3447 0 22.4889 1.14416 22.4889 2.55556Z" fill="#F0EEFF"/>
<path d="M39.8666 2.55556C39.8666 3.96696 38.7225 5.11113 37.3111 5.11113C35.8997 5.11113 34.7555 3.96696 34.7555 2.55556C34.7555 1.14416 35.8997 0 37.3111 0C38.7225 0 39.8666 1.14416 39.8666 2.55556Z" fill="#F0EEFF"/>
<path d="M57.2444 2.55556C57.2444 3.96696 56.1003 5.11113 54.6889 5.11113C53.2775 5.11113 52.1333 3.96696 52.1333 2.55556C52.1333 1.14416 53.2775 0 54.6889 0C56.1003 0 57.2444 1.14416 57.2444 2.55556Z" fill="#F0EEFF"/>
<path d="M74.6222 2.55556C74.6222 3.96696 73.4781 5.11113 72.0667 5.11113C70.6553 5.11113 69.5111 3.96696 69.5111 2.55556C69.5111 1.14416 70.6553 0 72.0667 0C73.4781 0 74.6222 1.14416 74.6222 2.55556Z" fill="#F0EEFF"/>
<path d="M92 2.55556C92 3.96696 90.8559 5.11113 89.4445 5.11113C88.0331 5.11113 86.8889 3.96696 86.8889 2.55556C86.8889 1.14416 88.0331 0 89.4445 0C90.8559 0 92 1.14416 92 2.55556Z" fill="#F0EEFF"/>
<path d="M5.11111 19.9333C5.11111 21.3447 3.96695 22.4889 2.55555 22.4889C1.14416 22.4889 0 21.3447 0 19.9333C0 18.5219 1.14416 17.3778 2.55555 17.3778C3.96695 17.3778 5.11111 18.5219 5.11111 19.9333Z" fill="#F0EEFF"/>
<path d="M22.4889 19.9333C22.4889 21.3447 21.3447 22.4889 19.9333 22.4889C18.5219 22.4889 17.3778 21.3447 17.3778 19.9333C17.3778 18.5219 18.5219 17.3778 19.9333 17.3778C21.3447 17.3778 22.4889 18.5219 22.4889 19.9333Z" fill="#F0EEFF"/>
<path d="M39.8666 19.9333C39.8666 21.3447 38.7225 22.4889 37.3111 22.4889C35.8997 22.4889 34.7555 21.3447 34.7555 19.9333C34.7555 18.5219 35.8997 17.3778 37.3111 17.3778C38.7225 17.3778 39.8666 18.5219 39.8666 19.9333Z" fill="#F0EEFF"/>
<path d="M57.2444 19.9333C57.2444 21.3447 56.1003 22.4889 54.6889 22.4889C53.2775 22.4889 52.1333 21.3447 52.1333 19.9333C52.1333 18.5219 53.2775 17.3778 54.6889 17.3778C56.1003 17.3778 57.2444 18.5219 57.2444 19.9333Z" fill="#F0EEFF"/>
<path d="M74.6222 19.9333C74.6222 21.3447 73.4781 22.4889 72.0667 22.4889C70.6553 22.4889 69.5111 21.3447 69.5111 19.9333C69.5111 18.5219 70.6553 17.3778 72.0667 17.3778C73.4781 17.3778 74.6222 18.5219 74.6222 19.9333Z" fill="#F0EEFF"/>
<path d="M92 19.9333C92 21.3447 90.8559 22.4889 89.4445 22.4889C88.0331 22.4889 86.8889 21.3447 86.8889 19.9333C86.8889 18.5219 88.0331 17.3778 89.4445 17.3778C90.8559 17.3778 92 18.5219 92 19.9333Z" fill="#F0EEFF"/>
<path d="M5.11111 37.3111C5.11111 38.7225 3.96695 39.8667 2.55555 39.8667C1.14416 39.8667 0 38.7225 0 37.3111C0 35.8997 1.14416 34.7556 2.55555 34.7556C3.96695 34.7556 5.11111 35.8997 5.11111 37.3111Z" fill="#F0EEFF"/>
<path d="M22.4889 37.3111C22.4889 38.7225 21.3447 39.8667 19.9333 39.8667C18.5219 39.8667 17.3778 38.7225 17.3778 37.3111C17.3778 35.8997 18.5219 34.7556 19.9333 34.7556C21.3447 34.7556 22.4889 35.8997 22.4889 37.3111Z" fill="#F0EEFF"/>
<path d="M39.8666 37.3111C39.8666 38.7225 38.7225 39.8667 37.3111 39.8667C35.8997 39.8667 34.7555 38.7225 34.7555 37.3111C34.7555 35.8997 35.8997 34.7556 37.3111 34.7556C38.7225 34.7556 39.8666 35.8997 39.8666 37.3111Z" fill="#F0EEFF"/>
<path d="M57.2444 37.3111C57.2444 38.7225 56.1003 39.8667 54.6889 39.8667C53.2775 39.8667 52.1333 38.7225 52.1333 37.3111C52.1333 35.8997 53.2775 34.7556 54.6889 34.7556C56.1003 34.7556 57.2444 35.8997 57.2444 37.3111Z" fill="#F0EEFF"/>
<path d="M74.6222 37.3111C74.6222 38.7225 73.4781 39.8667 72.0667 39.8667C70.6553 39.8667 69.5111 38.7225 69.5111 37.3111C69.5111 35.8997 70.6553 34.7556 72.0667 34.7556C73.4781 34.7556 74.6222 35.8997 74.6222 37.3111Z" fill="#F0EEFF"/>
<path d="M92 37.3111C92 38.7225 90.8559 39.8667 89.4445 39.8667C88.0331 39.8667 86.8889 38.7225 86.8889 37.3111C86.8889 35.8997 88.0331 34.7556 89.4445 34.7556C90.8559 34.7556 92 35.8997 92 37.3111Z" fill="#F0EEFF"/>
<path d="M5.11111 54.6889C5.11111 56.1003 3.96695 57.2445 2.55555 57.2445C1.14416 57.2445 0 56.1003 0 54.6889C0 53.2775 1.14416 52.1333 2.55555 52.1333C3.96695 52.1333 5.11111 53.2775 5.11111 54.6889Z" fill="#F0EEFF"/>
<path d="M22.4889 54.6889C22.4889 56.1003 21.3447 57.2445 19.9333 57.2445C18.5219 57.2445 17.3778 56.1003 17.3778 54.6889C17.3778 53.2775 18.5219 52.1333 19.9333 52.1333C21.3447 52.1333 22.4889 53.2775 22.4889 54.6889Z" fill="#F0EEFF"/>
<path d="M39.8666 54.6889C39.8666 56.1003 38.7225 57.2445 37.3111 57.2445C35.8997 57.2445 34.7555 56.1003 34.7555 54.6889C34.7555 53.2775 35.8997 52.1333 37.3111 52.1333C38.7225 52.1333 39.8666 53.2775 39.8666 54.6889Z" fill="#F0EEFF"/>
<path d="M57.2444 54.6889C57.2444 56.1003 56.1003 57.2445 54.6889 57.2445C53.2775 57.2445 52.1333 56.1003 52.1333 54.6889C52.1333 53.2775 53.2775 52.1333 54.6889 52.1333C56.1003 52.1333 57.2444 53.2775 57.2444 54.6889Z" fill="#F0EEFF"/>
<path d="M74.6222 54.6889C74.6222 56.1003 73.4781 57.2445 72.0667 57.2445C70.6553 57.2445 69.5111 56.1003 69.5111 54.6889C69.5111 53.2775 70.6553 52.1333 72.0667 52.1333C73.4781 52.1333 74.6222 53.2775 74.6222 54.6889Z" fill="#F0EEFF"/>
<path d="M92 54.6889C92 56.1003 90.8559 57.2445 89.4445 57.2445C88.0331 57.2445 86.8889 56.1003 86.8889 54.6889C86.8889 53.2775 88.0331 52.1333 89.4445 52.1333C90.8559 52.1333 92 53.2775 92 54.6889Z" fill="#F0EEFF"/>
<path d="M5.11111 72.0667C5.11111 73.4781 3.96695 74.6222 2.55555 74.6222C1.14416 74.6222 0 73.4781 0 72.0667C0 70.6553 1.14416 69.5111 2.55555 69.5111C3.96695 69.5111 5.11111 70.6553 5.11111 72.0667Z" fill="#F0EEFF"/>
<path d="M22.4889 72.0667C22.4889 73.4781 21.3447 74.6222 19.9333 74.6222C18.5219 74.6222 17.3778 73.4781 17.3778 72.0667C17.3778 70.6553 18.5219 69.5111 19.9333 69.5111C21.3447 69.5111 22.4889 70.6553 22.4889 72.0667Z" fill="#F0EEFF"/>
<path d="M39.8666 72.0667C39.8666 73.4781 38.7225 74.6222 37.3111 74.6222C35.8997 74.6222 34.7555 73.4781 34.7555 72.0667C34.7555 70.6553 35.8997 69.5111 37.3111 69.5111C38.7225 69.5111 39.8666 70.6553 39.8666 72.0667Z" fill="#F0EEFF"/>
<path d="M57.2444 72.0667C57.2444 73.4781 56.1003 74.6222 54.6889 74.6222C53.2775 74.6222 52.1333 73.4781 52.1333 72.0667C52.1333 70.6553 53.2775 69.5111 54.6889 69.5111C56.1003 69.5111 57.2444 70.6553 57.2444 72.0667Z" fill="#F0EEFF"/>
<path d="M74.6222 72.0667C74.6222 73.4781 73.4781 74.6222 72.0667 74.6222C70.6553 74.6222 69.5111 73.4781 69.5111 72.0667C69.5111 70.6553 70.6553 69.5111 72.0667 69.5111C73.4781 69.5111 74.6222 70.6553 74.6222 72.0667Z" fill="#F0EEFF"/>
<path d="M92 72.0667C92 73.4781 90.8559 74.6222 89.4445 74.6222C88.0331 74.6222 86.8889 73.4781 86.8889 72.0667C86.8889 70.6553 88.0331 69.5111 89.4445 69.5111C90.8559 69.5111 92 70.6553 92 72.0667Z" fill="#F0EEFF"/>
<path d="M5.11111 89.4444C5.11111 90.8558 3.96695 92 2.55555 92C1.14416 92 0 90.8558 0 89.4444C0 88.033 1.14416 86.8889 2.55555 86.8889C3.96695 86.8889 5.11111 88.033 5.11111 89.4444Z" fill="#F0EEFF"/>
<path d="M22.4889 89.4444C22.4889 90.8558 21.3447 92 19.9333 92C18.5219 92 17.3778 90.8558 17.3778 89.4444C17.3778 88.033 18.5219 86.8889 19.9333 86.8889C21.3447 86.8889 22.4889 88.033 22.4889 89.4444Z" fill="#F0EEFF"/>
<path d="M39.8666 89.4444C39.8666 90.8558 38.7225 92 37.3111 92C35.8997 92 34.7555 90.8558 34.7555 89.4444C34.7555 88.033 35.8997 86.8889 37.3111 86.8889C38.7225 86.8889 39.8666 88.033 39.8666 89.4444Z" fill="#F0EEFF"/>
<path d="M57.2444 89.4444C57.2444 90.8558 56.1003 92 54.6889 92C53.2775 92 52.1333 90.8558 52.1333 89.4444C52.1333 88.033 53.2775 86.8889 54.6889 86.8889C56.1003 86.8889 57.2444 88.033 57.2444 89.4444Z" fill="#F0EEFF"/>
<path d="M74.6222 89.4444C74.6222 90.8558 73.4781 92 72.0667 92C70.6553 92 69.5111 90.8558 69.5111 89.4444C69.5111 88.033 70.6553 86.8889 72.0667 86.8889C73.4781 86.8889 74.6222 88.033 74.6222 89.4444Z" fill="#F0EEFF"/>
<path d="M92 89.4444C92 90.8558 90.8559 92 89.4445 92C88.0331 92 86.8889 90.8558 86.8889 89.4444C86.8889 88.033 88.0331 86.8889 89.4445 86.8889C90.8559 86.8889 92 88.033 92 89.4444Z" fill="#F0EEFF"/>
</svg>
