<svg width="29" height="62" viewBox="0 0 29 62" fill="none" xmlns="http://www.w3.org/2000/svg">
<circle cx="25.926" cy="59.7778" r="2.22222" transform="rotate(-180 25.926 59.7778)" fill="#88C6FF"/>
<circle cx="14.0742" cy="59.7778" r="2.22222" transform="rotate(-180 14.0742 59.7778)" fill="#88C6FF"/>
<circle cx="2.22224" cy="59.7778" r="2.22222" transform="rotate(-180 2.22224 59.7778)" fill="#88C6FF"/>
<circle cx="25.926" cy="47.926" r="2.22222" transform="rotate(-180 25.926 47.926)" fill="#88C6FF"/>
<circle cx="14.0742" cy="47.926" r="2.22222" transform="rotate(-180 14.0742 47.926)" fill="#88C6FF"/>
<circle cx="2.22224" cy="47.926" r="2.22222" transform="rotate(-180 2.22224 47.926)" fill="#88C6FF"/>
<circle cx="25.926" cy="36.074" r="2.22222" transform="rotate(-180 25.926 36.074)" fill="#88C6FF"/>
<circle cx="14.0742" cy="36.074" r="2.22222" transform="rotate(-180 14.0742 36.074)" fill="#88C6FF"/>
<circle cx="2.22224" cy="36.074" r="2.22222" transform="rotate(-180 2.22224 36.074)" fill="#88C6FF"/>
<circle cx="25.926" cy="24.2222" r="2.22222" transform="rotate(-180 25.926 24.2222)" fill="#88C6FF"/>
<circle cx="25.926" cy="13.2222" r="2.22222" transform="rotate(-180 25.926 13.2222)" fill="#88C6FF"/>
<circle cx="25.926" cy="2.22224" r="2.22222" transform="rotate(-180 25.926 2.22224)" fill="#88C6FF"/>
<circle cx="14.0742" cy="24.2222" r="2.22222" transform="rotate(-180 14.0742 24.2222)" fill="#88C6FF"/>
<circle cx="14.0742" cy="13.2222" r="2.22222" transform="rotate(-180 14.0742 13.2222)" fill="#88C6FF"/>
<circle cx="14.0742" cy="2.22224" r="2.22222" transform="rotate(-180 14.0742 2.22224)" fill="#88C6FF"/>
<circle cx="2.22224" cy="24.2222" r="2.22222" transform="rotate(-180 2.22224 24.2222)" fill="#88C6FF"/>
<circle cx="2.22224" cy="13.2222" r="2.22222" transform="rotate(-180 2.22224 13.2222)" fill="#88C6FF"/>
<circle cx="2.22224" cy="2.22224" r="2.22222" transform="rotate(-180 2.22224 2.22224)" fill="#88C6FF"/>
</svg>
